<svg width="23" height="20" viewBox="0 0 23 20" fill="none" xmlns="http://www.w3.org/2000/svg">
<path fill-rule="evenodd" clip-rule="evenodd" d="M18.5553 1.06389V14.8012C18.5391 16.3861 19.361 17.0606 21.021 17.0387C22.1673 17.0003 22.3511 16.7645 23 16.5396C22.973 17.2087 23.0108 18.2067 22.9838 18.8758C22.7513 19.4626 21.778 19.7039 20.0909 19.6874C17.4631 19.6271 15.2677 18.2835 15.1596 15.7335V2.86811C15.1272 1.95777 15.1758 1.03647 16.0734 1.0584H18.5607L18.5553 1.06389Z" fill="#010100"/>
<path fill-rule="evenodd" clip-rule="evenodd" d="M9.40637 19.8574L3.7018 13.5947V17.9819C3.7018 19.4132 3.11783 19.989 2.21483 20H0.00329897V1.60132C-0.0291441 0.619687 0.165514 0.00548396 1.1334 0H3.92891C3.82076 0.26323 3.6964 0.718399 3.70721 1.78229V10.8747L7.88696 6.14203L10.0823 8.42885L6.87581 11.9879L13.5537 19.8574H9.40637Z" fill="#010100"/>
<path fill-rule="evenodd" clip-rule="evenodd" d="M4.83731 9.58048C5.76734 8.52756 6.7893 7.32657 7.72474 6.27365C8.06539 5.68138 9.0549 5.53331 10.3418 5.58815H19.3231C21.1562 5.53331 22.2214 5.18234 22.7513 4.62846V6.91527C22.6431 8.03948 21.7564 8.68111 19.7287 8.60982H9.21171C7.23269 8.59336 5.94037 8.98821 4.83731 9.58596V9.58048Z" fill="#E7211B"/>
</svg>
