<svg width="40" height="40" viewBox="0 0 40 40" fill="none" xmlns="http://www.w3.org/2000/svg">
<circle cx="20.5" cy="20" r="13.2" stroke="white" stroke-width="1.6"/>
<path d="M24 19.5V23.25C24 24.4926 22.2091 25.5 20 25.5C17.7909 25.5 16 24.4926 16 23.25V19.5M24 19.5V15.75M24 19.5C24 20.7426 22.2091 21.75 20 21.75C17.7909 21.75 16 20.7426 16 19.5M24 15.75C24 14.5074 22.2091 13.5 20 13.5C17.7909 13.5 16 14.5074 16 15.75M24 15.75C24 16.9926 22.2091 18 20 18C17.7909 18 16 16.9926 16 15.75M16 19.5V15.75" stroke="white" stroke-width="1.6" stroke-linecap="round" stroke-linejoin="round"/>
<path d="M29 11.5L26.5 14M14.5 26L11.5 29" stroke="white" stroke-width="1.6" stroke-linecap="round"/>
</svg>
