<svg width="84" height="60" viewBox="0 0 84 60" fill="none" xmlns="http://www.w3.org/2000/svg">
<path d="M12.2322 46.5C12.2322 42.9101 15.2543 40 18.9822 40H65.4822C69.2101 40 72.2322 42.9101 72.2322 46.5C72.2322 50.0899 69.2101 53 65.4822 53H18.9822C15.2543 53 12.2322 50.0899 12.2322 46.5Z" fill="white"/>
<path d="M65.4822 50.6895V53H18.9822V50.6895H65.4822ZM69.8328 46.5C69.8328 44.1865 67.8846 42.3105 65.4822 42.3105H18.9822C16.5797 42.3105 14.6316 44.1865 14.6316 46.5C14.6316 48.8135 16.5797 50.6895 18.9822 50.6895V53C15.2543 53 12.2322 50.0899 12.2322 46.5C12.2322 43.0223 15.0684 40.1825 18.635 40.0085L18.9822 40H65.4822L65.8293 40.0085C69.3959 40.1825 72.2322 43.0223 72.2322 46.5C72.2322 50.0899 69.2101 53 65.4822 53V50.6895C67.8846 50.6895 69.8328 48.8135 69.8328 46.5Z" fill="#002060"/>
<path opacity="0.6" d="M37.009 34.4566C37.3696 35.0062 38.1166 35.1653 38.6776 34.8119C39.2385 34.4585 39.4008 33.7266 39.0402 33.1769C35.3863 27.6077 27.078 27.6077 23.4241 33.1769C23.0635 33.7266 23.2258 34.4585 23.7867 34.8119C24.3477 35.1653 25.0947 35.0062 25.4554 34.4566C28.1586 30.3363 34.3057 30.3363 37.009 34.4566Z" fill="#002060"/>
<path d="M40.0905 28.5596C40.5103 29.0707 41.2705 29.1482 41.7871 28.7328C42.3036 28.3174 42.382 27.5651 41.9622 27.0538C36.4296 20.3154 26.0347 20.3154 20.5021 27.0538C20.0824 27.5651 20.1607 28.3174 20.6772 28.7328C21.1939 29.1482 21.954 29.0707 22.3739 28.5596C26.9417 22.996 35.5227 22.996 40.0905 28.5596Z" fill="#002060"/>
<path d="M25.2121 52.1367L23.4475 58.7224L21.1203 58.0977L22.8844 51.514L25.2121 52.1367Z" fill="#002060"/>
<path d="M60.2776 52.1367L62.0422 58.7224L64.3695 58.0977L62.6054 51.514L60.2776 52.1367Z" fill="#002060"/>
<path d="M59.821 21.7033C59.821 21.0379 59.2811 20.498 58.6157 20.498C57.9507 20.4983 57.4117 21.0374 57.4114 21.7023L57.4114 39.7C57.4117 40.365 57.9507 40.904 58.6157 40.9043C59.2811 40.9043 59.821 40.3644 59.821 39.699L59.821 21.7033Z" fill="#002060"/>
<path d="M53.7967 28.4802C53.7967 27.8149 53.2577 27.276 52.5924 27.276C51.927 27.276 51.3881 27.8148 51.3881 28.4802V39.6994C51.3881 40.3649 51.927 40.9037 52.5924 40.9037C53.2577 40.9037 53.7967 40.3648 53.7967 39.6994L53.7967 28.4802Z" fill="#002060"/>
<path d="M24.2322 46.5C24.2322 47.8807 23.3367 49 22.2322 49C21.1276 49 20.2322 47.8807 20.2322 46.5C20.2322 45.1193 21.1276 44 22.2322 44C23.3367 44 24.2322 45.1193 24.2322 46.5Z" fill="#002060"/>
<path opacity="0.4" d="M30.2322 46.5C30.2322 47.8807 29.3367 49 28.2322 49C27.1276 49 26.2322 47.8807 26.2322 46.5C26.2322 45.1193 27.1276 44 28.2322 44C29.3367 44 30.2322 45.1193 30.2322 46.5Z" fill="#002060"/>
</svg>
