<svg width="40" height="40" viewBox="0 0 40 40" fill="none" xmlns="http://www.w3.org/2000/svg">
<path d="M27.1605 30C27.1605 27.5838 23.9546 25.625 20 25.625C16.0454 25.625 12.8395 27.5838 12.8395 30M32 26.5005C32 24.7065 30.2327 23.1647 27.7037 22.4896M8 26.5005C8 24.7065 9.76735 23.1647 12.2963 22.4896M27.7037 16.636C28.5827 15.8349 29.1358 14.6707 29.1358 13.375C29.1358 10.9588 27.2123 9 24.8395 9C23.7391 9 22.7354 9.42124 21.9753 10.114M12.2963 16.636C11.4173 15.8349 10.8642 14.6707 10.8642 13.375C10.8642 10.9588 12.7877 9 15.1605 9C16.2609 9 17.2646 9.42124 18.0247 10.114M20 21.25C17.6272 21.25 15.7037 19.2912 15.7037 16.875C15.7037 14.4588 17.6272 12.5 20 12.5C22.3728 12.5 24.2963 14.4588 24.2963 16.875C24.2963 19.2912 22.3728 21.25 20 21.25Z" stroke="white" stroke-width="1.6" stroke-linecap="round" stroke-linejoin="round"/>
</svg>
