<svg width="40" height="40" viewBox="0 0 40 40" fill="none" xmlns="http://www.w3.org/2000/svg">
<path d="M32 26.5L19.5 34.5L7.5 27" stroke="white" stroke-width="1.6" stroke-linecap="round" stroke-linejoin="round"/>
<path d="M32 21.5L19.5 29.5L7 21.5" stroke="white" stroke-width="1.6" stroke-linecap="round" stroke-linejoin="round"/>
<path opacity="0.4" d="M32 21.5L19.5 13.5L7 21.5" stroke="white" stroke-width="1.6" stroke-linecap="round" stroke-linejoin="round"/>
<path d="M10.2949 9.42969V16.5H8.625V10.9922H8.58594L6.99414 11.9688V10.5234L8.74219 9.42969H10.2949ZM15.3195 16.5977C13.4836 16.5977 12.3605 15.2842 12.3605 12.9648C12.3605 10.6455 13.4836 9.33203 15.3195 9.33203C17.1555 9.33203 18.2834 10.6553 18.2785 12.9648C18.2834 15.2891 17.1555 16.5977 15.3195 16.5977ZM14.0695 12.9648C14.0646 14.5322 14.5676 15.2402 15.3195 15.2402C16.0715 15.2402 16.5744 14.5322 16.5695 12.9648C16.5695 11.4219 16.0715 10.6846 15.3195 10.6797C14.5725 10.6846 14.0744 11.4219 14.0695 12.9648ZM21.7992 16.5977C19.9633 16.5977 18.8402 15.2842 18.8402 12.9648C18.8402 10.6455 19.9633 9.33203 21.7992 9.33203C23.6352 9.33203 24.7631 10.6553 24.7582 12.9648C24.7631 15.2891 23.6352 16.5977 21.7992 16.5977ZM20.5492 12.9648C20.5443 14.5322 21.0473 15.2402 21.7992 15.2402C22.5512 15.2402 23.0541 14.5322 23.0492 12.9648C23.0492 11.4219 22.5512 10.6846 21.7992 10.6797C21.0521 10.6846 20.5541 11.4219 20.5492 12.9648ZM27.4293 13.043C26.3307 13.0479 25.735 12.2471 25.7398 11.0996C25.735 9.94238 26.36 9.1416 27.4293 9.14648C28.5426 9.1416 29.1334 9.94238 29.1383 11.0996C29.1334 12.2617 28.5279 13.0479 27.4293 13.043ZM26.8336 11.0996C26.8287 11.6953 27.0484 12.0859 27.4293 12.0859C27.8395 12.0859 28.0396 11.6953 28.0445 11.0996C28.0396 10.5088 27.8541 10.0986 27.4293 10.1035C27.0338 10.1035 26.8287 10.5186 26.8336 11.0996ZM26.8531 16.5L31.7164 9.42969H32.9078L28.0445 16.5H26.8531ZM30.6715 14.8301C30.6666 13.6729 31.2867 12.8721 32.3609 12.877C33.4693 12.8721 34.0602 13.6729 34.0602 14.8301C34.0602 15.9922 33.4547 16.7783 32.3609 16.7832C31.2623 16.7783 30.6666 15.9775 30.6715 14.8301ZM31.7555 14.8301C31.7604 15.4258 31.9752 15.8164 32.3609 15.8164C32.7662 15.8164 32.9713 15.4258 32.9762 14.8301C32.9713 14.2393 32.7857 13.8291 32.3609 13.834C31.9654 13.834 31.7604 14.249 31.7555 14.8301Z" fill="white"/>
</svg>
