<svg width="41" height="32" viewBox="0 0 41 32" fill="none" xmlns="http://www.w3.org/2000/svg">
<path d="M6.04768 23.4795C4.90737 22.9464 3.9707 22.5198 3.9707 21.6515C3.9707 20.9864 4.50012 20.504 5.55389 20.504C5.94077 20.504 6.25639 20.5497 6.58219 20.6106C6.75528 20.6411 6.93854 20.6665 7.08617 20.6665C8.00757 20.6665 8.52173 20.1181 8.86789 19.0822L9.01043 18.6607C8.8628 18.5998 7.36106 17.9448 5.40117 17.9448C2.2857 17.9448 0.64142 19.9353 0.64142 22.007C0.64142 23.0479 0.967221 23.8045 1.48138 24.4037C2.14316 25.1704 3.08493 25.6731 3.96561 26.0997C5.24845 26.7293 6.40402 27.1914 6.40402 28.1206C6.40402 28.9483 5.54879 29.4154 4.4034 29.4154C2.83548 29.4154 1.4661 28.5217 1.28793 28.4151L0 30.822C0.229079 30.9489 1.88863 32 4.61721 32C7.52396 32 9.72821 30.3345 9.72821 27.7753C9.72821 25.2161 7.68686 24.2869 6.03241 23.4897L6.04768 23.4795Z" fill="#E1002A"/>
<path d="M17.4202 24.6677L22.6941 18.219H18.9372L14.7323 23.7842H14.6712V18.219H11.5761V31.8832H11.7594C13.0982 31.8832 14.6916 31.2637 14.6916 29.0346V25.8965H14.7527L19.039 31.7156H22.9791L20.1997 28.1942L17.4202 24.6728V24.6677Z" fill="#E1002A"/>
<path d="M22.8671 3.57982C21.7777 3.78293 20.1589 4.77309 20.164 6.51983C20.164 8.10409 21.4672 9.06379 21.4723 11.1457C21.4774 12.7096 20.6171 13.7607 19.6804 14.3447C20.0571 14.3142 20.4695 14.2888 20.9276 14.2888C21.8796 14.2888 22.4548 14.3751 22.4955 14.3853L27.3876 8.3986C26.0284 6.3675 24.4402 4.7934 22.8722 3.58489L22.8671 3.57982Z" fill="#E1002A"/>
<path d="M26.9804 19.7525C27.5963 18.7978 27.6727 17.2745 27.7236 15.7207C27.7796 14.2736 28.085 13.1818 30.0246 13.1768C30.4573 13.1768 30.8645 13.2326 31.6078 13.2326C34.4534 13.2225 36.3115 12.2425 37.4671 11.6027C35.105 10.0997 31.6587 8.56617 27.3876 8.39353C27.1076 9.1755 24.9441 15.1876 24.7812 15.6699C24.8067 15.7004 25.1834 16.1219 25.6619 16.9495C26.3593 18.087 26.736 19.0467 26.9855 19.7525H26.9804Z" fill="#E1002A"/>
<path d="M16.6464 14.8423C16.3969 14.8423 16.2748 14.6798 16.2442 14.3954C16.2137 14.1111 14.9868 2.9451 14.8087 1.25928C14.7832 1.01047 14.7221 0.558553 14.7221 0.396065C14.717 0.137099 14.885 0 15.0836 0C15.6639 0 18.8201 0.736274 22.1748 3.07712C21.2076 3.35132 19.4615 4.35163 19.4717 6.42844C19.4768 8.26658 20.7953 9.27705 20.8054 11.1203C20.8156 14.1162 17.3642 14.8423 16.6464 14.8423Z" fill="#EE7602"/>
<path d="M27.2604 20.5446C27.3113 20.6817 27.3622 20.7985 27.4131 20.8848C27.4894 21.0168 27.5913 21.0727 27.7134 21.0727C27.7898 21.0727 27.8865 21.0473 27.9934 20.9965C28.253 20.8797 38.4699 16.132 40.0073 15.4262C40.2313 15.3196 40.6538 15.1317 40.7913 15.0505C40.9338 14.9692 41 14.8473 41 14.7255C41 14.6595 40.9796 14.5884 40.9389 14.5275C40.7455 14.2177 39.7579 13.1717 38.1034 12.0241C36.79 12.7452 34.7436 13.8623 31.6943 13.8724C30.946 13.8724 30.778 13.8216 30.2689 13.8267C28.7825 13.8267 28.4108 14.4665 28.3549 15.7664C28.3447 16.0102 28.3396 16.3402 28.3294 16.7058C28.2836 17.8686 28.1461 19.4732 27.2553 20.5446H27.2604Z" fill="#EE7602"/>
</svg>
