<svg width="40" height="40" viewBox="0 0 40 40" fill="none" xmlns="http://www.w3.org/2000/svg">
<circle cx="20" cy="20.5" r="13.2" stroke="white" stroke-width="1.6"/>
<path d="M18.3349 15.3381C18.1324 14.8319 17.6421 14.5 17.0969 14.5H15.2631C14.5655 14.5 14 15.0654 14 15.763C14 21.6928 18.8071 26.5 24.7367 26.5C25.4343 26.5 25.9997 25.9344 25.9997 25.2368L26 23.4026C26 22.8574 25.6682 22.3672 25.162 22.1648L23.4044 21.462C22.9497 21.2801 22.432 21.3619 22.0558 21.6755L21.6021 22.0538C21.0724 22.4953 20.2929 22.4602 19.8053 21.9725L18.528 20.694C18.0404 20.2064 18.0044 19.4276 18.4458 18.8978L18.8241 18.4442C19.1376 18.068 19.2202 17.5501 19.0383 17.0954L18.3349 15.3381Z" stroke="white" stroke-width="1.6" stroke-linecap="round" stroke-linejoin="round"/>
<path d="M28.5 12L26 14.5M14 26.5L11 29.5" stroke="white" stroke-width="1.6" stroke-linecap="round"/>
</svg>
