<svg width="40" height="40" viewBox="0 0 40 40" fill="none" xmlns="http://www.w3.org/2000/svg">
<path d="M16.8629 22.5657L23.1288 16.5722M29.5386 12.9144L24.2495 29.3567C23.7755 30.8303 23.5383 31.5674 23.1295 31.8117C22.7749 32.0236 22.3359 32.0591 21.9497 31.9058C21.5043 31.729 21.1429 31.0388 20.4219 29.6594L17.0719 23.2506C16.9574 23.0317 16.9002 22.9227 16.8237 22.8279C16.7559 22.7437 16.6776 22.6679 16.5897 22.603C16.4928 22.5316 16.3807 22.478 16.1621 22.3734L9.44661 19.1616C8.00455 18.472 7.28346 18.1268 7.09868 17.7008C6.93843 17.3314 6.97497 16.9111 7.19653 16.5719C7.45201 16.1808 8.22256 15.9536 9.76354 15.5L26.9531 10.4408C28.1645 10.0843 28.7705 9.90615 29.1797 10.0498C29.5361 10.175 29.8171 10.4435 29.9479 10.7845C30.0981 11.1757 29.9117 11.755 29.5393 12.9127L29.5386 12.9144Z" stroke="white" stroke-width="1.6" stroke-linecap="round" stroke-linejoin="round"/>
</svg>
