<svg width="28" height="28" viewBox="0 0 28 28" fill="none" xmlns="http://www.w3.org/2000/svg">
<path d="M5.43431 5.56569C5.74673 5.25327 6.25327 5.25327 6.56569 5.56569L22.1622 21.1622C22.4747 21.4747 22.4747 21.9812 22.1622 22.2936C21.8498 22.606 21.3433 22.606 21.0309 22.2936L5.43431 6.69706C5.12189 6.38464 5.1219 5.8781 5.43431 5.56569Z" fill="black"/>
<path d="M22.4343 5.43431C22.7467 5.74673 22.7467 6.25327 22.4343 6.56569L6.83776 22.1622C6.52534 22.4747 6.01881 22.4747 5.70639 22.1622C5.39397 21.8498 5.39397 21.3433 5.70639 21.0309L21.3029 5.43431C21.6154 5.12189 22.1219 5.1219 22.4343 5.43431Z" fill="black"/>
</svg>
