<svg width="40" height="40" viewBox="0 0 40 40" fill="none" xmlns="http://www.w3.org/2000/svg">
<path d="M26.4752 11.5H11.3334C9.9873 11.5 9.31389 11.5 8.783 11.7157C8.07513 12.0032 7.51311 12.5551 7.2199 13.2494C7 13.7701 7 14.4302 7 15.7503C9.39325 15.7503 11.3334 17.6525 11.3334 19.9997C11.3334 22.3469 9.39325 24.25 7 24.25C7 25.5702 7 26.2303 7.2199 26.7509C7.51311 27.4452 8.07513 27.9966 8.783 28.2842C9.31389 28.4999 9.9873 28.5 11.3334 28.5H26.4752M26.4752 11.5H28.6668C30.0129 11.5 30.6859 11.5 31.2168 11.7157C31.9246 12.0032 32.4869 12.5551 32.7801 13.2494C33 13.7701 33 14.4302 33 15.7503C30.6068 15.7503 28.6668 17.6528 28.6668 20C28.6668 22.3472 30.6068 24.25 33 24.25C33 25.5702 33 26.2303 32.7801 26.7509C32.4869 27.4452 31.9246 27.9966 31.2168 28.2842C30.6859 28.4999 30.0128 28.5 28.6668 28.5H26.4752M26.4752 11.5V28.5" stroke="white" stroke-width="1.6" stroke-linecap="round" stroke-linejoin="round"/>
<path d="M15.8252 19.7939C14.5737 19.7939 13.8916 18.8809 13.8916 17.5811C13.8916 16.2651 14.606 15.3574 15.8252 15.3574C17.1035 15.3574 17.7856 16.2651 17.791 17.5811C17.7856 18.9023 17.0874 19.7939 15.8252 19.7939ZM15.2021 17.5811C15.1968 18.2202 15.4331 18.6392 15.8252 18.6445C16.2603 18.6392 16.4805 18.2202 16.4805 17.5811C16.4805 16.9473 16.2764 16.5068 15.8252 16.5068C15.417 16.5068 15.1968 16.9634 15.2021 17.5811ZM15.2344 23.5L20.584 15.7227H22.0127L16.6631 23.5H15.2344ZM19.4883 21.6416C19.4829 20.3257 20.1973 19.418 21.4219 19.418C22.7002 19.418 23.377 20.3257 23.377 21.6416C23.377 22.9629 22.6841 23.8545 21.4219 23.8545C20.165 23.8545 19.4829 22.9414 19.4883 21.6416ZM20.7881 21.6416C20.7935 22.2861 21.0298 22.6997 21.4219 22.7051C21.8516 22.6997 22.0718 22.2861 22.0771 21.6416C22.0718 21.0078 21.873 20.5674 21.4219 20.5781C21.0083 20.5728 20.7935 21.0293 20.7881 21.6416Z" fill="white"/>
</svg>
