<svg width="40" height="40" viewBox="0 0 40 40" fill="none" xmlns="http://www.w3.org/2000/svg">
<path d="M15 11.5556H14.0002C12.6001 11.5556 11.8995 11.5556 11.3647 11.8341C10.8943 12.0791 10.5122 12.4698 10.2725 12.9506C10 13.4973 10 14.2134 10 15.6447V16.6667M15 11.5556H25M15 11.5556V9M25 11.5556H26.0002C27.4004 11.5556 28.0995 11.5556 28.6342 11.8341C29.1046 12.0791 29.4881 12.4698 29.7278 12.9506C30 13.4968 30 14.212 30 15.6405V16.6667M25 11.5556V9M10 16.6667V27.9114C10 29.3426 10 30.0579 10.2725 30.6045C10.5122 31.0854 10.8943 31.4767 11.3647 31.7217C11.899 32 12.5987 32 13.9961 32H26.0039C27.4013 32 28.1 32 28.6342 31.7217C29.1046 31.4767 29.4881 31.0854 29.7278 30.6045C30 30.0584 30 29.3441 30 27.9157V16.6667M10 16.6667H30M25 26.8889H25.0025L25.0024 26.8914L25 26.8914V26.8889ZM20 26.8889H20.0025L20.0024 26.8914L20 26.8914V26.8889ZM15 26.8889H15.0025L15.0024 26.8914L15 26.8914V26.8889ZM25.0024 21.7778V21.7803L25 21.7803V21.7778H25.0024ZM20 21.7778H20.0025L20.0024 21.7803L20 21.7803V21.7778ZM15 21.7778H15.0025L15.0024 21.7803L15 21.7803V21.7778Z" stroke="white" stroke-width="1.6" stroke-linecap="round" stroke-linejoin="round"/>
</svg>
