<svg width="84" height="60" viewBox="0 0 84 60" fill="none" xmlns="http://www.w3.org/2000/svg">
<path d="M11.5054 21.2058C11.5054 18.0966 14.0289 15.5762 17.1417 15.5762H67.869C70.9819 15.5762 73.5054 18.0966 73.5054 21.2058V47.9465C73.5054 51.0557 70.9819 53.5762 67.869 53.5762H17.1417C14.0289 53.5762 11.5054 51.0557 11.5054 47.9465V21.2058Z" fill="white"/>
<path d="M67.869 51.3249V53.5762H17.1417V51.3249H67.869ZM71.2514 47.9465V21.2058C71.2514 19.3403 69.7367 17.8275 67.869 17.8275H17.1417C15.274 17.8275 13.7594 19.3403 13.7594 21.2058V47.9465C13.7594 49.812 15.274 51.3249 17.1417 51.3249V53.5762L16.8514 53.5693C13.9696 53.4233 11.6585 51.1149 11.5123 48.2365L11.5054 47.9465V21.2058C11.5054 18.0966 14.0289 15.5762 17.1417 15.5762H67.869C70.9819 15.5762 73.5054 18.0966 73.5054 21.2058V47.9465C73.5054 50.9584 71.1373 53.4184 68.1594 53.5693L67.869 53.5762V51.3249C69.7367 51.3249 71.2514 49.812 71.2514 47.9465Z" fill="#002060"/>
<path d="M44.2753 29.2383L47.1819 38.3546H47.2975L50.2207 29.2383H52.9622L48.8334 41.1952H45.646L41.5007 29.2383H44.2753Z" fill="#002060"/>
<path d="M30.8484 31.2862V29.2383H40.6419V31.2862H36.9755V41.1952H34.5147V31.2862H30.8484Z" fill="#002060"/>
<path d="M53.5054 8.14493L46.9946 14.6259C44.3817 17.2263 40.1443 17.2263 37.5314 14.6259L34.5054 11.613L36.0817 10.0442L39.109 13.0558C40.851 14.7894 43.675 14.7894 45.417 13.0558L51.9291 6.57617L53.5054 8.14493Z" fill="#002060"/>
<path opacity="0.6" d="M66.5054 39.1111L59.0403 46.5762L57.5054 45.0413L64.9705 37.5762L66.5054 39.1111Z" fill="#002060"/>
<path opacity="0.6" d="M67.5054 43.2187L63.1479 47.5762L61.5054 45.9336L65.8628 41.5762L67.5054 43.2187Z" fill="#002060"/>
<path d="M23.5484 52.7612L21.8971 58.9239L19.7194 58.3394L21.3701 52.1786L23.5484 52.7612Z" fill="#002060"/>
<path d="M61.9983 52.7612L63.6495 58.9239L65.8273 58.3394L64.1765 52.1786L61.9983 52.7612Z" fill="#002060"/>
</svg>
