<svg width="40" height="40" viewBox="0 0 40 40" fill="none" xmlns="http://www.w3.org/2000/svg">
<path d="M24.125 18.0687L18.625 23.4478L15.875 20.7582M31 19.6354C31 28.4683 24.1689 32.4283 21.2729 33.7103L21.2693 33.7119C20.9647 33.8467 20.812 33.9143 20.4659 33.9724C20.2468 34.0092 19.7546 34.0092 19.5354 33.9724C19.188 33.9141 19.0337 33.8462 18.7267 33.7103C15.8307 32.4283 9 28.4682 9 19.6354V14.3036C9 12.7973 9 12.0436 9.29973 11.4682C9.56338 10.9622 9.98377 10.551 10.5012 10.2931C11.0895 10 11.8601 10 13.4003 10H20.0003H26.6003C28.1404 10 28.9094 10 29.4977 10.2931C30.0151 10.551 30.4369 10.9622 30.7006 11.4682C31 12.043 31 12.7958 31 14.2991V19.6354Z" stroke="white" stroke-width="1.6" stroke-linecap="round" stroke-linejoin="round"/>
</svg>
