<svg width="24" height="24" viewBox="0 0 24 24" fill="none" xmlns="http://www.w3.org/2000/svg">
<g clip-path="url(#clip0_351_806)">
<path d="M12 0C5.37415 0 0 4.62236 0 10.3282C0 14.0391 2.27697 17.2943 5.69455 19.1126C5.44251 20.131 4.78462 22.8095 4.65219 23.3815C4.48985 24.093 4.89142 24.0837 5.15628 23.893C5.36134 23.7442 8.44571 21.461 9.7743 20.4751C10.4963 20.5914 11.2396 20.6518 12 20.6518C18.6258 20.6518 24 16.0295 24 10.3236C24 4.61771 18.6258 0 12 0Z" fill="#371C1D"/>
<path d="M3.62694 8.42633H4.86154C4.86154 8.42633 4.87009 12.1186 4.86154 12.9789C4.86154 13.6067 6.14741 13.616 6.14314 12.9882V8.47283C6.14314 8.47283 6.56179 8.47283 7.37774 8.47283C8.1467 8.47283 8.1467 7.15681 7.37774 7.15681C6.51053 7.15681 3.62267 7.12891 3.62267 7.12891C2.89643 7.12891 2.9007 8.41703 3.62267 8.41703" fill="#F8E049"/>
<mask id="mask0_351_806" style="mask-type:luminance" maskUnits="userSpaceOnUse" x="3" y="7" width="5" height="7">
<path d="M3.62694 8.42633H4.86154C4.86154 8.42633 4.87009 12.1186 4.86154 12.9789C4.86154 13.6067 6.14741 13.616 6.14314 12.9882V8.47283C6.14314 8.47283 6.56179 8.47283 7.37774 8.47283C8.1467 8.47283 8.1467 7.15681 7.37774 7.15681C6.51053 7.15681 3.62267 7.12891 3.62267 7.12891C2.89643 7.12891 2.9007 8.41703 3.62267 8.41703" fill="white"/>
</mask>
<g mask="url(#mask0_351_806)">
<path d="M8.15115 7.13818H2.90088V13.616H8.15115V7.13818Z" fill="#F8E049"/>
</g>
<path d="M9.53932 8.6634L10.2271 11.0071H8.796L9.53932 8.6634ZM8.77037 7.56594C8.46706 8.29603 7.36916 11.7372 7.00604 12.6487C6.74118 13.309 7.87752 13.8484 8.14239 13.1881L8.39016 12.2488H10.65C10.65 12.2488 10.5731 12.286 10.8722 13.1509C11.1157 13.8484 12.2905 13.3648 12.047 12.6673C11.7009 11.6675 10.5005 8.07747 10.2826 7.57059C10.1801 7.33343 9.82128 7.16602 9.47097 7.16602C9.18048 7.16602 8.89853 7.28227 8.77891 7.57059" fill="#F8E049"/>
<mask id="mask1_351_806" style="mask-type:luminance" maskUnits="userSpaceOnUse" x="6" y="7" width="7" height="7">
<path d="M9.53932 8.6634L10.2271 11.0071H8.796L9.53932 8.6634ZM8.77037 7.56594C8.46706 8.29603 7.36916 11.7372 7.00604 12.6487C6.74118 13.309 7.87752 13.8484 8.14239 13.1881L8.39016 12.2488H10.65C10.65 12.2488 10.5731 12.286 10.8722 13.1509C11.1157 13.8484 12.2905 13.3648 12.047 12.6673C11.7009 11.6675 10.5005 8.07747 10.2826 7.57059C10.1801 7.33343 9.82128 7.16602 9.47097 7.16602C9.18048 7.16602 8.89853 7.28227 8.77891 7.57059" fill="white"/>
</mask>
<g mask="url(#mask1_351_806)">
<path d="M12.2862 7.16113H6.74121V13.8436H12.2862V7.16113Z" fill="#F8E049"/>
</g>
<path d="M12.474 7.78011C12.474 8.94732 12.4783 12.7187 12.4783 12.7187C12.4783 12.7187 12.3801 13.4674 12.9696 13.4674C13.5591 13.4674 14.8706 13.4581 15.4516 13.4581C16.0326 13.4581 16.0283 12.1142 15.4516 12.1142C14.8749 12.1142 13.8112 12.1095 13.8112 12.1095C13.8112 12.1095 13.8154 8.6218 13.8112 7.77546C13.8112 7.36623 13.478 7.16162 13.1447 7.16162C12.8115 7.16162 12.474 7.36623 12.474 7.78011Z" fill="#F8E049"/>
<mask id="mask2_351_806" style="mask-type:luminance" maskUnits="userSpaceOnUse" x="12" y="7" width="4" height="7">
<path d="M12.474 7.78011C12.474 8.94732 12.4783 12.7187 12.4783 12.7187C12.4783 12.7187 12.3801 13.4674 12.9696 13.4674C13.5591 13.4674 14.8706 13.4581 15.4516 13.4581C16.0326 13.4581 16.0283 12.1142 15.4516 12.1142C14.8749 12.1142 13.8112 12.1095 13.8112 12.1095C13.8112 12.1095 13.8154 8.6218 13.8112 7.77546C13.8112 7.36623 13.478 7.16162 13.1447 7.16162C12.8115 7.16162 12.474 7.36623 12.474 7.78011Z" fill="white"/>
</mask>
<g mask="url(#mask2_351_806)">
<path d="M16.0326 7.1665H12.3843V13.4723H16.0326V7.1665Z" fill="#F8E049"/>
</g>
<path d="M16.1866 7.59411C16.1994 8.10564 16.1695 12.742 16.1738 13.0861C16.1738 13.6302 17.4425 13.6255 17.4425 13.0861C17.4425 12.4583 17.4425 11.2632 17.4425 11.2632L17.8142 10.9377L19.4418 13.3558C19.7708 13.8301 20.8089 12.9745 20.4799 12.5001L18.7498 10.0215C18.7498 10.0215 19.9246 8.64042 20.3859 8.13819C20.6551 7.84523 19.822 6.92913 19.5486 7.22209C19.288 7.50576 17.4468 9.51002 17.4468 9.51002C17.4468 9.51002 17.4639 8.2498 17.4468 7.55691C17.4383 7.29185 17.1435 7.16629 16.8402 7.16629C16.5155 7.16629 16.1823 7.31045 16.1866 7.59411Z" fill="#F8E049"/>
<mask id="mask3_351_806" style="mask-type:luminance" maskUnits="userSpaceOnUse" x="16" y="7" width="5" height="7">
<path d="M16.1866 7.59411C16.1994 8.10564 16.1695 12.742 16.1738 13.0861C16.1738 13.6302 17.4425 13.6255 17.4425 13.0861C17.4425 12.4583 17.4425 11.2632 17.4425 11.2632L17.8142 10.9377L19.4418 13.3558C19.7708 13.8301 20.8089 12.9745 20.4799 12.5001L18.7498 10.0215C18.7498 10.0215 19.9246 8.64042 20.3859 8.13819C20.6551 7.84523 19.822 6.92913 19.5486 7.22209C19.288 7.50576 17.4468 9.51002 17.4468 9.51002C17.4468 9.51002 17.4639 8.2498 17.4468 7.55691C17.4383 7.29185 17.1435 7.16629 16.8402 7.16629C16.5155 7.16629 16.1823 7.31045 16.1866 7.59411Z" fill="white"/>
</mask>
<g mask="url(#mask3_351_806)">
<path d="M20.8089 6.93359H16.1738V13.8299H20.8089V6.93359Z" fill="#F8E049"/>
</g>
</g>
<defs>
<clipPath id="clip0_351_806">
<rect width="24" height="24" fill="white"/>
</clipPath>
</defs>
</svg>
